<svg width="133" height="54" viewBox="0 0 133 54" fill="none" xmlns="http://www.w3.org/2000/svg">
<path d="M28.224 23.216C30.8693 23.216 32.928 23.9947 34.4 25.552C35.872 27.088 36.608 29.3173 36.608 32.24V46H31.424V32.4C31.424 30.8213 31.008 29.6373 30.176 28.848C29.3653 28.0373 28.288 27.632 26.944 27.632C25.472 27.632 24.2987 28.0587 23.424 28.912C22.5493 29.744 22.112 31.0133 22.112 32.72V46H16.928V32.4C16.928 30.8213 16.544 29.6373 15.776 28.848C15.008 28.0373 13.9627 27.632 12.64 27.632C11.1893 27.632 10.0267 28.0587 9.152 28.912C8.27733 29.744 7.84 31.0133 7.84 32.72V46H2.656V23.6H7.68V26.352C8.36267 25.3493 9.26933 24.5813 10.4 24.048C11.5307 23.4933 12.832 23.216 14.304 23.216C15.84 23.216 17.184 23.504 18.336 24.08C19.488 24.6347 20.3733 25.4453 20.992 26.512C21.76 25.4453 22.7627 24.6347 24 24.08C25.2587 23.504 26.6667 23.216 28.224 23.216ZM58.7105 28.784V43.12C58.7105 46.2773 57.9105 48.624 56.3105 50.16C54.7105 51.696 52.3852 52.464 49.3345 52.464C47.7132 52.464 46.1772 52.2613 44.7265 51.856C43.2972 51.4507 42.0918 50.864 41.1105 50.096L43.0945 46.512C43.8198 47.1093 44.7052 47.5787 45.7505 47.92C46.7958 48.2613 47.8518 48.432 48.9185 48.432C50.5825 48.432 51.7985 48.048 52.5665 47.28C53.3345 46.512 53.7185 45.3387 53.7185 43.76V43.184C53.0785 43.824 52.3212 44.3147 51.4465 44.656C50.5718 44.9973 49.6332 45.168 48.6305 45.168C46.3692 45.168 44.5772 44.528 43.2545 43.248C41.9318 41.9467 41.2705 40.0053 41.2705 37.424V28.784H46.2625V36.688C46.2625 39.4827 47.4252 40.88 49.7505 40.88C50.9452 40.88 51.9052 40.496 52.6305 39.728C53.3558 38.9387 53.7185 37.776 53.7185 36.24V28.784H58.7105Z" fill="#9B51E0"/>
<path d="M74.4073 46.384C72.1246 46.384 70.0553 45.8933 68.1993 44.912C66.3646 43.9093 64.9139 42.5333 63.8473 40.784C62.8019 39.0133 62.2793 37.0187 62.2793 34.8C62.2793 32.5813 62.8019 30.5973 63.8473 28.848C64.9139 27.0773 66.3646 25.7013 68.1993 24.72C70.0553 23.7173 72.1353 23.216 74.4393 23.216C76.3806 23.216 78.1299 23.5573 79.6873 24.24C81.2659 24.9227 82.5886 25.904 83.6553 27.184L80.3273 30.256C78.8126 28.5067 76.9353 27.632 74.6953 27.632C73.3086 27.632 72.0713 27.9413 70.9833 28.56C69.8953 29.1573 69.0419 30 68.4233 31.088C67.8259 32.176 67.5273 33.4133 67.5273 34.8C67.5273 36.1867 67.8259 37.424 68.4233 38.512C69.0419 39.6 69.8953 40.4533 70.9833 41.072C72.0713 41.6693 73.3086 41.968 74.6953 41.968C76.9353 41.968 78.8126 41.0827 80.3273 39.312L83.6553 42.384C82.5886 43.6853 81.2659 44.6773 79.6873 45.36C78.1086 46.0427 76.3486 46.384 74.4073 46.384ZM86.804 28.784H91.796V46H86.804V28.784ZM89.3 26.384C88.3827 26.384 87.636 26.1173 87.06 25.584C86.484 25.0507 86.196 24.3893 86.196 23.6C86.196 22.8107 86.484 22.1493 87.06 21.616C87.636 21.0827 88.3827 20.816 89.3 20.816C90.2173 20.816 90.964 21.072 91.54 21.584C92.116 22.096 92.404 22.736 92.404 23.504C92.404 24.336 92.116 25.0293 91.54 25.584C90.964 26.1173 90.2173 26.384 89.3 26.384ZM106.797 45.168C106.306 45.5307 105.698 45.808 104.973 46C104.269 46.1707 103.533 46.256 102.765 46.256C100.696 46.256 99.1063 45.7333 97.997 44.688C96.8877 43.6427 96.333 42.1067 96.333 40.08V24.976H101.325V29.168H105.581V33.008H101.325V40.016C101.325 40.7413 101.506 41.3067 101.869 41.712C102.232 42.096 102.754 42.288 103.437 42.288C104.205 42.288 104.888 42.0747 105.485 41.648L106.797 45.168ZM126.961 28.784V43.12C126.961 46.2773 126.161 48.624 124.561 50.16C122.961 51.696 120.635 52.464 117.585 52.464C115.963 52.464 114.427 52.2613 112.977 51.856C111.547 51.4507 110.342 50.864 109.361 50.096L111.345 46.512C112.07 47.1093 112.955 47.5787 114.001 47.92C115.046 48.2613 116.102 48.432 117.169 48.432C118.833 48.432 120.049 48.048 120.817 47.28C121.585 46.512 121.969 45.3387 121.969 43.76V43.184C121.329 43.824 120.571 44.3147 119.697 44.656C118.822 44.9973 117.883 45.168 116.881 45.168C114.619 45.168 112.827 44.528 111.505 43.248C110.182 41.9467 109.521 40.0053 109.521 37.424V28.784H114.513V36.688C114.513 39.4827 115.675 40.88 118.001 40.88C119.195 40.88 120.155 40.496 120.881 39.728C121.606 38.9387 121.969 37.776 121.969 36.24V28.784H126.961Z" fill="#4F4F4F"/>
<path d="M1.584 16V4.8H11.488V16H9.44V6.048L9.92 6.56H3.152L3.632 6.048V16H1.584ZM18.4061 16.112C17.4568 16.112 16.6248 15.9253 15.9101 15.552C15.2061 15.168 14.6568 14.6453 14.2621 13.984C13.8781 13.3227 13.6861 12.5707 13.6861 11.728C13.6861 10.8747 13.8728 10.1227 14.2461 9.472C14.6301 8.81067 15.1528 8.29333 15.8141 7.92C16.4861 7.54667 17.2488 7.36 18.1021 7.36C18.9341 7.36 19.6755 7.54133 20.3261 7.904C20.9768 8.26667 21.4888 8.77867 21.8621 9.44C22.2355 10.1013 22.4221 10.88 22.4221 11.776C22.4221 11.8613 22.4168 11.9573 22.4061 12.064C22.4061 12.1707 22.4008 12.272 22.3901 12.368H15.2701V11.04H21.3341L20.5501 11.456C20.5608 10.9653 20.4595 10.5333 20.2461 10.16C20.0328 9.78667 19.7395 9.49333 19.3661 9.28C19.0035 9.06667 18.5821 8.96 18.1021 8.96C17.6115 8.96 17.1795 9.06667 16.8061 9.28C16.4435 9.49333 16.1555 9.792 15.9421 10.176C15.7395 10.5493 15.6381 10.992 15.6381 11.504V11.824C15.6381 12.336 15.7555 12.7893 15.9901 13.184C16.2248 13.5787 16.5555 13.8827 16.9821 14.096C17.4088 14.3093 17.8995 14.416 18.4541 14.416C18.9341 14.416 19.3661 14.3413 19.7501 14.192C20.1341 14.0427 20.4755 13.808 20.7741 13.488L21.8461 14.72C21.4621 15.168 20.9768 15.5147 20.3901 15.76C19.8141 15.9947 19.1528 16.112 18.4061 16.112ZM26.0575 16V8.672L26.5215 9.152H23.0495V7.456H31.0495V9.152H27.5935L28.0575 8.672V16H26.0575ZM37.2363 16.112C36.5429 16.112 35.9083 15.952 35.3323 15.632C34.7669 15.312 34.3136 14.832 33.9723 14.192C33.6416 13.5413 33.4763 12.72 33.4763 11.728C33.4763 10.7253 33.6363 9.904 33.9563 9.264C34.2869 8.624 34.7349 8.14933 35.3003 7.84C35.8656 7.52 36.5109 7.36 37.2363 7.36C38.0789 7.36 38.8203 7.54133 39.4603 7.904C40.1109 8.26667 40.6229 8.77333 40.9963 9.424C41.3803 10.0747 41.5723 10.8427 41.5723 11.728C41.5723 12.6133 41.3803 13.3867 40.9963 14.048C40.6229 14.6987 40.1109 15.2053 39.4603 15.568C38.8203 15.9307 38.0789 16.112 37.2363 16.112ZM32.5003 19.104V7.456H34.4043V9.472L34.3403 11.744L34.5003 14.016V19.104H32.5003ZM37.0123 14.4C37.4923 14.4 37.9189 14.2933 38.2923 14.08C38.6763 13.8667 38.9803 13.5573 39.2043 13.152C39.4283 12.7467 39.5403 12.272 39.5403 11.728C39.5403 11.1733 39.4283 10.6987 39.2043 10.304C38.9803 9.89867 38.6763 9.58933 38.2923 9.376C37.9189 9.16267 37.4923 9.056 37.0123 9.056C36.5323 9.056 36.1003 9.16267 35.7163 9.376C35.3323 9.58933 35.0283 9.89867 34.8043 10.304C34.5803 10.6987 34.4683 11.1733 34.4683 11.728C34.4683 12.272 34.5803 12.7467 34.8043 13.152C35.0283 13.5573 35.3323 13.8667 35.7163 14.08C36.1003 14.2933 36.5323 14.4 37.0123 14.4ZM47.3708 16.112C46.4961 16.112 45.7174 15.9253 45.0348 15.552C44.3521 15.168 43.8134 14.6453 43.4188 13.984C43.0241 13.3227 42.8268 12.5707 42.8268 11.728C42.8268 10.8747 43.0241 10.1227 43.4188 9.472C43.8134 8.81067 44.3521 8.29333 45.0348 7.92C45.7174 7.54667 46.4961 7.36 47.3708 7.36C48.2561 7.36 49.0401 7.54667 49.7228 7.92C50.4161 8.29333 50.9548 8.80533 51.3388 9.456C51.7334 10.1067 51.9308 10.864 51.9308 11.728C51.9308 12.5707 51.7334 13.3227 51.3388 13.984C50.9548 14.6453 50.4161 15.168 49.7228 15.552C49.0401 15.9253 48.2561 16.112 47.3708 16.112ZM47.3708 14.4C47.8614 14.4 48.2988 14.2933 48.6828 14.08C49.0668 13.8667 49.3654 13.5573 49.5788 13.152C49.8028 12.7467 49.9148 12.272 49.9148 11.728C49.9148 11.1733 49.8028 10.6987 49.5788 10.304C49.3654 9.89867 49.0668 9.58933 48.6828 9.376C48.2988 9.16267 47.8668 9.056 47.3868 9.056C46.8961 9.056 46.4588 9.16267 46.0748 9.376C45.7014 9.58933 45.4028 9.89867 45.1788 10.304C44.9548 10.6987 44.8428 11.1733 44.8428 11.728C44.8428 12.272 44.9548 12.7467 45.1788 13.152C45.4028 13.5573 45.7014 13.8667 46.0748 14.08C46.4588 14.2933 46.8908 14.4 47.3708 14.4ZM53.9065 16V7.456H62.0985V16H60.1145V8.688L60.5785 9.152H55.4425L55.9065 8.688V16H53.9065ZM69.9811 16V14.272L69.8691 13.904V10.88C69.8691 10.2933 69.6931 9.84 69.3411 9.52C68.9891 9.18933 68.4558 9.024 67.7411 9.024C67.2611 9.024 66.7865 9.09867 66.3171 9.248C65.8585 9.39733 65.4691 9.60533 65.1491 9.872L64.3651 8.416C64.8238 8.064 65.3678 7.80267 65.9971 7.632C66.6371 7.45067 67.2985 7.36 67.9811 7.36C69.2185 7.36 70.1731 7.65867 70.8451 8.256C71.5278 8.84267 71.8691 9.75467 71.8691 10.992V16H69.9811ZM67.2931 16.112C66.6531 16.112 66.0931 16.0053 65.6131 15.792C65.1331 15.568 64.7598 15.264 64.4931 14.88C64.2371 14.4853 64.1091 14.0427 64.1091 13.552C64.1091 13.072 64.2211 12.64 64.4451 12.256C64.6798 11.872 65.0585 11.568 65.5811 11.344C66.1038 11.12 66.7971 11.008 67.6611 11.008H70.1411V12.336H67.8051C67.1225 12.336 66.6638 12.448 66.4291 12.672C66.1945 12.8853 66.0771 13.152 66.0771 13.472C66.0771 13.8347 66.2211 14.1227 66.5091 14.336C66.7971 14.5493 67.1971 14.656 67.7091 14.656C68.1998 14.656 68.6371 14.544 69.0211 14.32C69.4158 14.096 69.6985 13.7653 69.8691 13.328L70.2051 14.528C70.0131 15.0293 69.6665 15.4187 69.1651 15.696C68.6745 15.9733 68.0505 16.112 67.2931 16.112ZM74.344 16V7.456H78.52C79.5547 7.456 80.3653 7.648 80.952 8.032C81.5493 8.416 81.848 8.96 81.848 9.664C81.848 10.3573 81.5707 10.9013 81.016 11.296C80.4613 11.68 79.7253 11.872 78.808 11.872L79.048 11.376C80.0827 11.376 80.8507 11.568 81.352 11.952C81.864 12.3253 82.12 12.8747 82.12 13.6C82.12 14.3573 81.8373 14.9493 81.272 15.376C80.7067 15.792 79.848 16 78.696 16H74.344ZM76.248 14.544H78.536C79.08 14.544 79.4907 14.4587 79.768 14.288C80.0453 14.1067 80.184 13.8347 80.184 13.472C80.184 13.088 80.056 12.8053 79.8 12.624C79.544 12.4427 79.144 12.352 78.6 12.352H76.248V14.544ZM76.248 11.024H78.344C78.856 11.024 79.24 10.9333 79.496 10.752C79.7627 10.56 79.896 10.2933 79.896 9.952C79.896 9.6 79.7627 9.33867 79.496 9.168C79.24 8.99733 78.856 8.912 78.344 8.912H76.248V11.024ZM83.0023 15.984L83.0983 14.304C83.1729 14.3147 83.2423 14.3253 83.3063 14.336C83.3703 14.3467 83.4289 14.352 83.4823 14.352C83.8129 14.352 84.0689 14.2507 84.2503 14.048C84.4316 13.8453 84.5649 13.5733 84.6503 13.232C84.7463 12.88 84.8103 12.4907 84.8423 12.064C84.8849 11.6267 84.9169 11.1893 84.9383 10.752L85.0823 7.456H91.9943V16H89.9943V8.608L90.4583 9.152H86.3943L86.8263 8.592L86.7143 10.848C86.6823 11.6053 86.6183 12.3093 86.5223 12.96C86.4369 13.6 86.2983 14.16 86.1063 14.64C85.9249 15.12 85.6689 15.4933 85.3383 15.76C85.0183 16.0267 84.6076 16.16 84.1063 16.16C83.9463 16.16 83.7703 16.144 83.5783 16.112C83.3969 16.08 83.2049 16.0373 83.0023 15.984ZM98.4958 16.112C97.6211 16.112 96.8424 15.9253 96.1598 15.552C95.4771 15.168 94.9384 14.6453 94.5438 13.984C94.1491 13.3227 93.9518 12.5707 93.9518 11.728C93.9518 10.8747 94.1491 10.1227 94.5438 9.472C94.9384 8.81067 95.4771 8.29333 96.1598 7.92C96.8424 7.54667 97.6211 7.36 98.4958 7.36C99.3811 7.36 100.165 7.54667 100.848 7.92C101.541 8.29333 102.08 8.80533 102.464 9.456C102.858 10.1067 103.056 10.864 103.056 11.728C103.056 12.5707 102.858 13.3227 102.464 13.984C102.08 14.6453 101.541 15.168 100.848 15.552C100.165 15.9253 99.3811 16.112 98.4958 16.112ZM98.4958 14.4C98.9864 14.4 99.4238 14.2933 99.8078 14.08C100.192 13.8667 100.49 13.5573 100.704 13.152C100.928 12.7467 101.04 12.272 101.04 11.728C101.04 11.1733 100.928 10.6987 100.704 10.304C100.49 9.89867 100.192 9.58933 99.8078 9.376C99.4238 9.16267 98.9918 9.056 98.5118 9.056C98.0211 9.056 97.5838 9.16267 97.1998 9.376C96.8264 9.58933 96.5278 9.89867 96.3038 10.304C96.0798 10.6987 95.9678 11.1733 95.9678 11.728C95.9678 12.272 96.0798 12.7467 96.3038 13.152C96.5278 13.5573 96.8264 13.8667 97.1998 14.08C97.5838 14.2933 98.0158 14.4 98.4958 14.4ZM105.032 16V7.456H109.208C110.242 7.456 111.053 7.648 111.64 8.032C112.237 8.416 112.536 8.96 112.536 9.664C112.536 10.3573 112.258 10.9013 111.704 11.296C111.149 11.68 110.413 11.872 109.496 11.872L109.736 11.376C110.77 11.376 111.538 11.568 112.04 11.952C112.552 12.3253 112.808 12.8747 112.808 13.6C112.808 14.3573 112.525 14.9493 111.96 15.376C111.394 15.792 110.536 16 109.384 16H105.032ZM106.936 14.544H109.224C109.768 14.544 110.178 14.4587 110.456 14.288C110.733 14.1067 110.872 13.8347 110.872 13.472C110.872 13.088 110.744 12.8053 110.488 12.624C110.232 12.4427 109.832 12.352 109.288 12.352H106.936V14.544ZM106.936 11.024H109.032C109.544 11.024 109.928 10.9333 110.184 10.752C110.45 10.56 110.584 10.2933 110.584 9.952C110.584 9.6 110.45 9.33867 110.184 9.168C109.928 8.99733 109.544 8.912 109.032 8.912H106.936V11.024ZM118.826 16.112C117.93 16.112 117.13 15.9253 116.426 15.552C115.732 15.168 115.188 14.6453 114.794 13.984C114.399 13.3227 114.202 12.5707 114.202 11.728C114.202 10.8747 114.399 10.1227 114.794 9.472C115.188 8.81067 115.732 8.29333 116.426 7.92C117.13 7.54667 117.93 7.36 118.826 7.36C119.658 7.36 120.388 7.53067 121.018 7.872C121.658 8.20267 122.143 8.69333 122.474 9.344L120.938 10.24C120.682 9.83467 120.367 9.536 119.994 9.344C119.631 9.152 119.236 9.056 118.81 9.056C118.319 9.056 117.876 9.16267 117.482 9.376C117.087 9.58933 116.778 9.89867 116.554 10.304C116.33 10.6987 116.218 11.1733 116.218 11.728C116.218 12.2827 116.33 12.7627 116.554 13.168C116.778 13.5627 117.087 13.8667 117.482 14.08C117.876 14.2933 118.319 14.4 118.81 14.4C119.236 14.4 119.631 14.304 119.994 14.112C120.367 13.92 120.682 13.6213 120.938 13.216L122.474 14.112C122.143 14.752 121.658 15.248 121.018 15.6C120.388 15.9413 119.658 16.112 118.826 16.112ZM130.363 16L127.275 11.904L128.907 10.896L132.715 16H130.363ZM124.235 16V7.456H126.235V16H124.235ZM125.643 12.576V10.912H128.539V12.576H125.643ZM129.099 11.968L127.227 11.744L130.363 7.456H132.507L129.099 11.968Z" fill="#828282"/>
</svg>
